<?xml version="1.0" encoding="UTF-8" standalone="no"?><!DOCTYPE svg PUBLIC "-//W3C//DTD SVG 1.1//EN" "http://www.w3.org/Graphics/SVG/1.1/DTD/svg11.dtd"><svg width="100%" height="100%" viewBox="0 0 500 297" version="1.1" xmlns="http://www.w3.org/2000/svg" xmlns:xlink="http://www.w3.org/1999/xlink" xml:space="preserve" xmlns:serif="http://www.serif.com/" style="fill-rule:evenodd;clip-rule:evenodd;"><g><path d="M283.004,288.387l-80.645,0l10.081,-8.064l60.483,0l10.081,8.064Z" style="fill:url(#_Linear1);"/><path d="M228.569,280.323l28.225,0l2.016,4.032l-32.258,0l2.017,-4.032Z" style="fill:#231f20;"/><rect x="229.839" y="258.145" width="24.194" height="24.194" style="fill:url(#_Linear2);"/><rect x="143.145" y="139.194" width="197.581" height="118.952"/><rect x="201.613" y="288.387" width="80.645" height="2.016" style="fill:#231f20;"/><path d="M285.685,296.452l-89.375,0l6.13,-6.049l79.657,0l3.588,6.049Z" style="fill:url(#_Linear3);"/><rect x="147.177" y="143.226" width="189.516" height="110.887" style="fill:#eaeaea;"/><path d="M231.411,195.06c-0.181,1.009 -2.802,14.98 -2.883,15.484c-0.084,0.743 -0.748,1.281 -1.492,1.21l-4.193,0c-0.276,0.023 -0.546,-0.09 -0.722,-0.303c-0.177,-0.213 -0.239,-0.499 -0.165,-0.766c0,-0.564 2.782,-14.959 2.883,-15.504c0.094,-0.706 0.72,-1.218 1.431,-1.169l4.234,0c0.275,-0.028 0.546,0.08 0.726,0.288c0.181,0.209 0.248,0.493 0.181,0.76Zm0.242,-7.479l-4.234,0c-0.711,-0.049 -1.337,0.463 -1.431,1.169c-0.101,0.565 -0.363,2.016 -0.484,2.5c-0.066,0.264 0,0.543 0.175,0.751c0.176,0.208 0.441,0.318 0.712,0.297l4.214,0c0.744,0.071 1.407,-0.467 1.492,-1.209c0,-0.484 0.282,-1.432 0.463,-2.46c0.068,-0.268 0,-0.551 -0.181,-0.76c-0.18,-0.209 -0.451,-0.316 -0.726,-0.288Zm-33.306,23.588l1.109,0c0.544,0 0.887,0.202 0.887,0.646c0,0.12 0,0.302 0,0.483c0,0.182 -0.524,2.742 -0.524,2.742c-0.129,0.636 -0.704,1.082 -1.351,1.049l-1.593,0c-1.225,0.151 -2.455,-0.234 -3.375,-1.057c-0.92,-0.823 -1.439,-2.004 -1.423,-3.238c-0.808,0.185 -1.632,0.286 -2.46,0.303c-6.048,0 -8.851,-3.912 -8.851,-9.254c0,-6.653 4.496,-15.262 13.488,-15.262c5.927,0 8.831,3.83 8.831,9.254c0.022,5.031 -2.277,9.791 -6.23,12.903c0.022,0.805 0.687,1.443 1.492,1.431Zm-2.782,-15.06c0,-1.855 -0.646,-3.145 -2.541,-3.145c-4.334,0 -4.98,9.314 -4.98,10.564c0,1.714 0.504,3.186 2.541,3.186c4.355,0 4.98,-9.053 4.98,-10.605Zm90.725,15.665l4.194,0c0.739,0.058 1.387,-0.491 1.451,-1.23c0,-0.423 1.331,-7.096 1.674,-8.971c0.343,-1.875 1.129,-2.883 2.379,-2.883c1.25,0 1.391,0.786 1.21,1.794l-2.017,10.262c-0.053,0.271 0.027,0.551 0.214,0.754c0.187,0.203 0.46,0.305 0.734,0.274l4.274,0c0.751,0.058 1.408,-0.5 1.472,-1.25c0,-0.363 2.016,-11.008 2.016,-11.008c0.466,-1.421 0.187,-2.982 -0.742,-4.154c-0.929,-1.173 -2.384,-1.801 -3.875,-1.672c-2.141,-0.08 -4.13,1.104 -5.08,3.024l0.262,-1.573c0.07,-0.27 0.008,-0.558 -0.166,-0.776c-0.175,-0.218 -0.442,-0.342 -0.721,-0.333l-3.69,0c-0.388,-0.051 -0.779,0.061 -1.081,0.31c-0.302,0.248 -0.487,0.611 -0.512,1.001c-0.161,0.907 -2.762,14.859 -2.863,15.403c-0.056,0.257 0.01,0.527 0.18,0.728c0.17,0.202 0.424,0.313 0.687,0.3Zm-16.693,-17.359c0,-0.201 -0.141,-0.383 -0.545,-0.383l-3.629,0c-0.854,0.018 -1.661,0.4 -2.217,1.049c-0.404,0.423 -5.545,5.443 -5.545,5.443c0,0 2.016,-10.484 2.137,-11.512c0.074,-0.267 0.012,-0.553 -0.165,-0.766c-0.176,-0.212 -0.446,-0.326 -0.722,-0.302l-4.213,0c-0.364,-0.028 -0.724,0.09 -1,0.329c-0.277,0.238 -0.446,0.577 -0.472,0.941l-4.032,21.492c-0.065,0.26 -0.002,0.535 0.169,0.742c0.171,0.207 0.43,0.32 0.697,0.306l4.214,0c0.364,0.039 0.729,-0.068 1.013,-0.299c0.284,-0.231 0.464,-0.566 0.499,-0.931c0.121,-0.605 0.605,-3.246 0.605,-3.246l2.258,-2.177l1.472,5.625c0.16,0.686 0.814,1.139 1.512,1.048l4.496,0c0.645,0 0.968,-0.544 0.766,-1.25c-0.201,-0.705 -3.125,-10.222 -3.125,-10.222l5.484,-5.221c0.198,-0.174 0.315,-0.422 0.323,-0.686l0.02,0.02Zm-48.206,-0.383l-4.193,0c-0.733,-0.058 -1.378,0.479 -1.452,1.21l-1.653,8.992c-0.363,1.875 -1.149,2.883 -2.379,2.883c-1.23,0 -1.391,-0.807 -1.21,-1.794l1.895,-10.263c0.061,-0.268 -0.012,-0.55 -0.197,-0.754c-0.184,-0.205 -0.457,-0.307 -0.73,-0.274l-4.214,0c-0.751,-0.058 -1.408,0.5 -1.472,1.25c0,0.363 -2.016,10.464 -2.016,10.706c-0.118,0.55 -0.179,1.111 -0.181,1.673c-0.001,1.269 0.536,2.478 1.478,3.328c0.941,0.849 2.2,1.259 3.461,1.128c2.078,0.013 3.98,-1.161 4.899,-3.024l-0.262,1.572c-0.078,0.268 -0.022,0.557 0.15,0.777c0.171,0.22 0.439,0.343 0.717,0.332l3.69,0c0.389,0.058 0.783,-0.052 1.087,-0.302c0.303,-0.249 0.487,-0.616 0.506,-1.008c0.181,-0.908 2.782,-14.859 2.883,-15.404c0.054,-0.252 -0.007,-0.515 -0.167,-0.718c-0.16,-0.203 -0.402,-0.324 -0.66,-0.33l0.02,0.02Zm27.883,5.867c0,-2.843 -2.359,-6.209 -7.681,-6.209c-6.553,0 -9.839,5.08 -9.839,10.504c-0.029,2.134 0.817,4.188 2.34,5.684c1.522,1.496 3.591,2.305 5.725,2.239c6.572,0 8.75,-4.718 8.75,-6.754c0,-0.444 -0.222,-0.746 -0.847,-0.746l-4.335,0c-0.559,-0.054 -1.07,0.318 -1.189,0.867c-0.223,0.969 -1.029,1.695 -2.017,1.814c-1.129,0 -1.653,-0.927 -1.653,-2.137c0,-2.217 0.807,-6.673 3.125,-6.673c1.19,0 1.452,0.907 1.452,1.855c0,0.524 0.201,0.887 0.887,0.887l4.032,0c0.807,-0.02 1.23,-0.403 1.23,-1.351l0.02,0.02Zm34.637,4.375l-10.08,0c-0.121,0.343 -0.464,3.307 1.673,3.307c0.847,-0.074 1.583,-0.609 1.915,-1.391c0.17,-0.457 0.623,-0.746 1.109,-0.706l4.899,0c0.646,0 0.787,0.201 0.787,0.564c0,1.412 -3.004,6.049 -8.69,6.049c-5.685,0 -8.286,-3.549 -8.286,-7.581c0,-5.302 3.568,-10.847 9.899,-10.847c5.484,0 8.266,3.387 8.266,7.521c-0.014,0.677 -0.088,1.352 -0.222,2.016c-0.025,0.313 -0.177,0.602 -0.42,0.8c-0.244,0.198 -0.558,0.288 -0.87,0.248l0.02,0.02Zm-6.774,-6.048c-1.532,0 -2.258,2.016 -2.48,2.58l4.174,0c0.02,-0.927 -0.041,-2.6 -1.714,-2.6l0.02,0.02Zm27.863,-5.141c0.668,0 1.21,0.541 1.21,1.209c0,0.319 -0.128,0.625 -0.356,0.849c-0.227,0.223 -0.535,0.346 -0.854,0.341c-0.319,0.005 -0.627,-0.118 -0.854,-0.341c-0.228,-0.224 -0.356,-0.53 -0.356,-0.849c0,-0.668 0.542,-1.209 1.21,-1.209Zm0,0.201c-0.557,0 -1.008,0.452 -1.008,1.008c0,0.557 0.451,1.008 1.008,1.008c0.557,0 1.008,-0.451 1.008,-1.008c0,-0.556 -0.451,-1.008 -1.008,-1.008Zm-0.262,1.694l-0.202,0l0,-1.351l0.524,0c0.323,0 0.505,0.121 0.505,0.383c0.005,0.1 -0.031,0.197 -0.099,0.27c-0.069,0.072 -0.165,0.113 -0.264,0.113l0.383,0.605l-0.222,0l-0.383,-0.605l-0.242,0l0,0.585Zm0,-0.766l0.262,0c0.262,0 0.343,0 0.343,-0.242c0,-0.242 0,-0.202 -0.303,-0.202l-0.302,0l0,0.444Z" style="fill:#c60c30;fill-rule:nonzero;"/><path d="M473.79,30.306c0,-1.103 -0.896,-2 -2,-2l-96.806,0c-1.104,0 -2,0.897 -2,2l0,58.5c0,1.104 0.896,2 2,2l96.806,0c1.104,0 2,-0.896 2,-2l0,-58.5Z" style="fill:#a5adcd;"/><rect x="372.984" y="38.387" width="100.806" height="6.048" style="fill:#7f8693;"/><rect x="372.984" y="44.435" width="100.806" height="14.113" style="fill:#ededed;"/><circle cx="456.996" cy="74.677" r="8.73" style="fill:#fccf4f;"/><circle cx="448.246" cy="74.677" r="8.73" style="fill:#6a6f82;"/><path d="M154.395,86.613l164.153,0l12.44,-6.895l-4.375,-23.186l2.016,-2.016c0,0 -22.177,-16.472 -63.508,-15.282c-41.331,1.189 -63.508,19.314 -63.508,19.314c0,0 -26.21,-2.016 -48.387,12.097l0,10.081l3.367,2.863l-2.198,3.024Z" style="fill:#f48585;"/><path d="M207.661,58.548c0,0 72.581,-4.032 78.629,-4.032c6.049,0 16.129,-2.016 18.145,-4.032c0,0 -16.129,-8.065 -46.37,-8.065c-18.071,0 -35.691,5.638 -50.404,16.129Z" style="fill:#e3e9ec;"/><circle cx="181.452" cy="86.774" r="12.097" style="fill:#525352;stroke:#fff;stroke-width:4.03px;"/><circle cx="300.403" cy="86.774" r="12.097" style="fill:#525352;stroke:#fff;stroke-width:4.03px;"/><path d="M481.855,235.968l-72.581,0l0,-50.403l37.299,-34.275l35.282,34.275l0,50.403Z" style="fill:#e3e9ec;"/><rect x="433.468" y="199.677" width="24.194" height="26.21" style="fill:#f5918e;"/><path d="M396.169,196.653l50.404,-46.371l48.387,44.355" style="fill:none;stroke:#ea564b;stroke-width:12.1px;"/><path d="M18.145,34.254l0,-11.814l48.508,-22.178l48.266,22.178l0,11.915l-96.774,-0.101Z" style="fill:#61b2e3;"/><rect x="26.21" y="34.355" width="80.645" height="46.371" style="fill:#e3e9ec;"/><rect x="18.145" y="80.726" width="96.774" height="12.097" style="fill:#4e88c7;"/><rect x="32.258" y="38.387" width="12.097" height="38.306" style="fill:#4e88c7;"/><rect x="88.71" y="38.387" width="12.097" height="38.306" style="fill:#4e88c7;"/><circle cx="66.532" cy="56.532" r="16.129" style="fill:#fff;"/><g><path d="M65.783,68.338l0,-2.099c-1.425,0 -3.152,-0.316 -5.183,-0.947l0,-2.79c1.903,0.862 3.63,1.335 5.183,1.421l0,-6.079l-0.653,-0.448c-1.569,-1.058 -2.627,-1.952 -3.173,-2.681c-0.546,-0.73 -0.819,-1.615 -0.819,-2.656c0,-1.271 0.415,-2.329 1.247,-3.174c0.832,-0.844 1.965,-1.352 3.398,-1.522l0,-2.074l2.06,0l0,2.074c1.34,0.068 2.697,0.337 4.07,0.806l0,2.572c-1.399,-0.657 -2.756,-1.045 -4.07,-1.164l0,5.733l0.576,0.384c1.613,1.032 2.703,1.915 3.27,2.649c0.568,0.734 0.851,1.63 0.851,2.687c0,1.383 -0.42,2.541 -1.26,3.475c-0.841,0.934 -1.986,1.517 -3.437,1.747l0,2.086l-2.06,0Zm1.664,-4.569c1.22,-0.384 1.83,-1.135 1.83,-2.252c0,-0.853 -0.61,-1.715 -1.83,-2.585l0,4.837Zm-1.267,-9.534l0,-4.556c-1.178,0.392 -1.766,1.092 -1.766,2.099c0,0.887 0.588,1.706 1.766,2.457Z" style="fill:#4e88c7;fill-rule:nonzero;"/></g><path d="M242.944,138.185l0,-2.016" style="fill:none;stroke:#253b4a;stroke-width:2.02px;"/><path d="M242.944,132.258l0,-29.395" style="fill:none;stroke:#253b4a;stroke-width:2.02px;stroke-dasharray:3.91,3.91;"/><path d="M242.944,100.887l0,-2.016m-98.791,39.314l-1.814,-0.866" style="fill:none;stroke:#253b4a;stroke-width:2.02px;"/><path d="M138.669,135.524l-71.512,-34.859" style="fill:none;stroke:#253b4a;stroke-width:2.02px;stroke-dasharray:4.07,4.07;"/><path d="M65.323,99.758l-1.815,-0.887m276.21,39.314l1.814,-0.866" style="fill:none;stroke:#253b4a;stroke-width:2.02px;"/><path d="M345.202,135.524l71.512,-34.859" style="fill:none;stroke:#253b4a;stroke-width:2.02px;stroke-dasharray:4.07,4.07;"/><path d="M418.548,99.758l1.815,-0.887" style="fill:none;stroke:#253b4a;stroke-width:2.02px;"/><path d="M143.145,198.669l-46.371,0m286.291,0l-44.355,0" style="fill:none;stroke:#253b4a;stroke-width:2.02px;stroke-dasharray:4.03,4.03;"/><path d="M5.806,229.435c0,0.162 0,0.323 0,0.484l0,-0.484Z" style="fill:#25a162;"/><path d="M0,242.016l86.694,0l0,-8.064l-86.694,0l0,8.064Z" style="fill:#4680a3;"/><rect x="38.306" y="203.71" width="10.081" height="30.242" style="fill:#f48585;"/><rect x="54.435" y="195.645" width="10.081" height="38.306" style="fill:#5eb1e2;"/><rect x="6.048" y="203.71" width="10.081" height="30.242" style="fill:#f48585;"/><rect x="70.565" y="179.516" width="10.081" height="54.435" style="fill:#f48585;"/><rect x="22.177" y="193.629" width="10.081" height="40.323" style="fill:#5eb1e2;"/><path d="M73.911,162.964l-25.524,22.601l-22.177,-10.081l-24.194,18.145" style="fill:none;stroke:#4680a3;stroke-width:6.05px;"/><path d="M65.948,157.944l17.721,-3.629l-5.725,17.177l-11.996,-13.548Z" style="fill:#4680a3;"/></g><defs><linearGradient id="_Linear1" x1="0" y1="0" x2="1" y2="0" gradientUnits="userSpaceOnUse" gradientTransform="matrix(4.93809e-16,-8.06452,8.06452,4.93809e-16,242.681,288.387)"><stop offset="0" style="stop-color:#414042;stop-opacity:1"/><stop offset="0.07" style="stop-color:#414042;stop-opacity:1"/><stop offset="0.42" style="stop-color:#414042;stop-opacity:1"/><stop offset="0.48" style="stop-color:#414042;stop-opacity:1"/><stop offset="0.95" style="stop-color:#414042;stop-opacity:1"/><stop offset="1" style="stop-color:#414042;stop-opacity:1"/></linearGradient><linearGradient id="_Linear2" x1="0" y1="0" x2="1" y2="0" gradientUnits="userSpaceOnUse" gradientTransform="matrix(24.1935,0,0,24.1935,229.839,270.242)"><stop offset="0" style="stop-color:#a9abae;stop-opacity:1"/><stop offset="0.02" style="stop-color:#414042;stop-opacity:1"/><stop offset="0.5" style="stop-color:#231f20;stop-opacity:1"/><stop offset="0.98" style="stop-color:#414042;stop-opacity:1"/><stop offset="1" style="stop-color:#aeb0b3;stop-opacity:1"/></linearGradient><linearGradient id="_Linear3" x1="0" y1="0" x2="1" y2="0" gradientUnits="userSpaceOnUse" gradientTransform="matrix(3.70357e-16,-6.04839,6.04839,3.70357e-16,240.988,296.452)"><stop offset="0" style="stop-color:#fff;stop-opacity:0"/><stop offset="1" style="stop-color:#231f20;stop-opacity:0.6"/></linearGradient></defs></svg>