<?xml version="1.0" encoding="UTF-8" standalone="no"?><!DOCTYPE svg PUBLIC "-//W3C//DTD SVG 1.1//EN" "http://www.w3.org/Graphics/SVG/1.1/DTD/svg11.dtd"><svg width="100%" height="100%" viewBox="0 0 65 47" version="1.1" xmlns="http://www.w3.org/2000/svg" xmlns:xlink="http://www.w3.org/1999/xlink" xml:space="preserve" xmlns:serif="http://www.serif.com/" style="fill-rule:evenodd;clip-rule:evenodd;stroke-linejoin:round;stroke-miterlimit:1.41421;"><path d="M34.5,41.932l0.5,2.9l-2.6,-1.4l-2.599,1.4l0.5,-2.9l-2.101,-2.1l2.901,-0.4l1.299,-2.6l1.3,2.6l2.901,0.4l-2.101,2.1Zm-0.1,-3.4l-1.099,-2.2l-0.901,-1.8l-0.9,1.8l-1.1,2.2l-2.4,0.3l-2,0.3l1.5,1.4l1.7,1.7l-0.399,2.5l-0.301,2l1.801,-0.9l2.099,-1.1l2.1,1.1l1.801,0.9l-0.301,-2l-0.399,-2.4l1.7,-1.7l1.5,-1.4l-2,-0.3l-2.401,-0.4Z" style="fill:#c20631;fill-rule:nonzero;"/><path d="M8.5,41.932l0.5,2.9l-2.6,-1.4l-2.599,1.4l0.5,-2.9l-2.101,-2.1l2.901,-0.4l1.299,-2.6l1.3,2.6l2.901,0.4l-2.101,2.1Zm-0.1,-3.4l-1.099,-2.2l-0.901,-1.8l-0.9,1.8l-1.1,2.2l-2.4,0.3l-2,0.3l1.5,1.4l1.7,1.7l-0.399,2.5l-0.301,2l1.801,-0.9l2.099,-1.1l2.1,1.1l1.801,0.9l-0.301,-2l-0.399,-2.4l1.7,-1.7l1.5,-1.4l-2,-0.3l-2.401,-0.4Z" style="fill:#c20631;fill-rule:nonzero;"/><path d="M21.5,41.932l0.5,2.9l-2.6,-1.4l-2.599,1.4l0.5,-2.9l-2.101,-2.1l2.901,-0.4l1.299,-2.6l1.3,2.6l2.901,0.4l-2.101,2.1Zm-0.1,-3.4l-1.099,-2.2l-0.901,-1.8l-0.9,1.8l-1.1,2.2l-2.4,0.3l-2,0.3l1.5,1.4l1.7,1.7l-0.399,2.5l-0.301,2l1.801,-0.9l2.099,-1.1l2.1,1.1l1.801,0.9l-0.301,-2l-0.399,-2.4l1.7,-1.7l1.5,-1.4l-2,-0.3l-2.401,-0.4Z" style="fill:#c20631;fill-rule:nonzero;"/><path d="M60.5,41.932l0.5,2.9l-2.6,-1.4l-2.599,1.4l0.5,-2.9l-2.101,-2.1l2.901,-0.4l1.299,-2.6l1.3,2.6l2.901,0.4l-2.101,2.1Zm4.301,-2.7l-2,-0.3l-2.401,-0.3l-1.099,-2.2l-0.901,-1.8l-0.9,1.8l-1.1,2.2l-2.4,0.3l-2,0.3l1.5,1.4l1.7,1.7l-0.399,2.4l-0.301,2l1.801,-0.9l2.099,-1.1l2.1,1.1l1.801,0.9l-0.301,-2l-0.399,-2.4l1.7,-1.7l1.5,-1.4Z" style="fill:#c20631;fill-rule:nonzero;"/><path d="M47.5,41.932l0.5,2.9l-2.6,-1.4l-2.599,1.4l0.5,-2.9l-2.101,-2.1l2.901,-0.4l1.299,-2.6l1.3,2.6l2.901,0.4l-2.101,2.1Zm-0.1,-3.4l-1.099,-2.2l-0.901,-1.8l-0.9,1.8l-1.1,2.2l-2.4,0.3l-2,0.3l1.5,1.4l1.7,1.7l-0.399,2.5l-0.301,2l1.801,-0.9l2.099,-1.1l2.1,1.1l1.801,0.9l-0.301,-2l-0.399,-2.4l1.7,-1.7l1.5,-1.4l-2,-0.3l-2.401,-0.4Z" style="fill:#c20631;fill-rule:nonzero;"/><path d="M48.7,12.632c-2.8,0 -5.1,-2.3 -5.1,-5.1c0,-2.8 2.3,-5.1 5.1,-5.1c2.8,0 5.101,2.3 5.101,5.1c0,2.8 -2.301,5.1 -5.101,5.1m-16.2,5.4c0,0 -0.1,0 0,0c-2.8,0 -5.1,-2.2 -5.1,-5c0,-2.8 2.2,-5.1 5,-5.1c2.8,0 5.1,2.2 5.1,5c0,2.8 -2.199,5.1 -5,5.1m-16.4,-5.4c-2.799,0 -5.1,-2.3 -5.1,-5.1c0,-2.8 2.301,-5.1 5.1,-5.1c2.8,0 5.1,2.3 5.1,5.1c0,2.8 -2.3,5.1 -5.1,5.1m41.701,11.4l0,2.7l2.399,0l0,-2.7c0,-4.6 -2.8,-8.7 -7,-10.5c3.3,-2.5 4,-7.1 1.5,-10.5c-2.5,-3.4 -7.1,-4 -10.5,-1.5c-3.399,2.5 -4,7.1 -1.5,10.5c0.4,0.6 1,1.1 1.5,1.5c-2.7,1.2 -4.899,3.4 -6,6.2l-1.399,-0.8c3.299,-2.5 4,-7.1 1.5,-10.5c-2.5,-3.4 -7.101,-4 -10.5,-1.5c-3.401,2.5 -4,7.1 -1.5,10.5c0.399,0.6 1,1.1 1.5,1.5l-1.401,0.7c-1.099,-2.7 -3.3,-4.9 -6,-6.1c3.3,-2.5 4,-7.1 1.5,-10.5c-2.5,-3.3 -7.099,-4 -10.5,-1.5c-3.3,2.5 -4,7.1 -1.5,10.5c0.401,0.6 1,1.1 1.5,1.5c-4.2,1.8 -6.9,5.9 -6.9,10.5l0,2.7l2.4,0l0,-2.7c0,-5 4.1,-9 9.1,-9c3.9,0 7.301,2.5 8.5,6.1c-2.3,2.2 -3.6,5.2 -3.6,8.3l0,2.7l2.401,0l0,-2.7c-0.401,-5 3.299,-9.3 8.299,-9.7c5,-0.4 9.3,3.3 9.701,8.3l0,4.2l2.5,0l0,-2.7c0,-3.1 -1.301,-6.2 -3.601,-8.3c1.7,-4.7 6.9,-7.1 11.601,-5.4c3.5,1.1 5.899,4.4 6,8.2" style="fill:#c20631;fill-rule:nonzero;"/></svg>