<?xml version="1.0" encoding="UTF-8" standalone="no"?><!DOCTYPE svg PUBLIC "-//W3C//DTD SVG 1.1//EN" "http://www.w3.org/Graphics/SVG/1.1/DTD/svg11.dtd"><svg width="100%" height="100%" viewBox="0 0 40 51" version="1.1" xmlns="http://www.w3.org/2000/svg" xmlns:xlink="http://www.w3.org/1999/xlink" xml:space="preserve" xmlns:serif="http://www.serif.com/" style="fill-rule:evenodd;clip-rule:evenodd;stroke-linejoin:round;stroke-miterlimit:1.41421;"><path d="M20.701,35l-0.601,0.2l-0.7,-0.2c-0.699,-0.3 -1.199,-1 -1.199,-1.7c0,-1 0.8,-1.8 1.8,-1.8l0,-1.1l0,1.1c1,0 1.8,0.8 1.8,1.8c0.099,0.7 -0.401,1.4 -1.1,1.7m-0.651,-5.8c-2.147,0 -3.903,1.8 -3.903,4c0,1.401 0.683,2.7 1.854,3.401l0,5.899l4,0l0,-5.899c1.171,-0.701 1.853,-2 1.853,-3.401c0,-2.2 -1.658,-4 -3.804,-4" style="fill:#c20631;fill-rule:nonzero;"/><path d="M32.6,48.5l-27.6,0l0,0.9l0,-1.1c-1.299,0 -3,-3.4 -3,-3.4l0,-19c0,-1.878 1.523,-3.4 3.4,-3.4l27.2,0c1.878,0 3.4,1.522 3.4,3.4l0,19.201c0,1.877 -1.522,3.399 -3.4,3.399m-6.6,-33.5l0,5.5l-14,0l0,-5.5c0,-1.899 0.69,-3.7 2.071,-5c1.281,-1.3 3.056,-2.1 4.929,-2.1l0,-1.1l0,1.1c3.845,0 7,3.201 7,7.1m-7.101,-12.6c6.609,0 12.101,5.3 12.101,11.9l0,6.2l-3,0l0,-6.2c0,-5.1 -4.01,-9.199 -9,-9.199c-3.41,0 -6.438,1.943 -8.027,5.017c-0.685,1.324 -0.973,2.819 -0.973,4.31l0,6.072l-3,0l0,-6.2c-0.204,-6.6 5.288,-11.9 11.899,-11.9m20.202,22.691c0,-3.05 -2.525,-5.591 -5.557,-5.591l-0.544,0l0,-5.158c0,-6.792 -4.698,-12.867 -11.377,-14.1c-8.838,-1.631 -16.623,5.199 -16.623,13.758l0,5.944c-2.857,0.306 -5,2.653 -5,5.613l0,19.353c0,3.049 2.526,5.59 5.557,5.59l27.886,0c3.031,0 5.557,-2.541 5.557,-5.59l0.101,-19.819Z" style="fill:#c20631;fill-rule:nonzero;"/></svg>