<?xml version="1.0" encoding="UTF-8" standalone="no"?><!DOCTYPE svg PUBLIC "-//W3C//DTD SVG 1.1//EN" "http://www.w3.org/Graphics/SVG/1.1/DTD/svg11.dtd"><svg width="100%" height="100%" viewBox="0 0 49 58" version="1.1" xmlns="http://www.w3.org/2000/svg" xmlns:xlink="http://www.w3.org/1999/xlink" xml:space="preserve" xmlns:serif="http://www.serif.com/" style="fill-rule:evenodd;clip-rule:evenodd;stroke-linejoin:round;stroke-miterlimit:1.41421;"><path d="M24.039,40.383c-8.8,0 -15.899,-7.1 -15.899,-15.8c0,-8.8 7.099,-15.9 15.799,-15.9c8.701,0 15.8,7.1 15.901,15.8c0,8.8 -7.101,15.8 -15.801,15.9m0,-33.5c-9.699,0 -17.6,7.9 -17.6,17.6c0,9.7 7.901,17.6 17.6,17.6c9.7,0 17.601,-7.9 17.601,-17.6c0,-9.7 -7.901,-17.6 -17.601,-17.6" style="fill:#c20631;fill-rule:nonzero;"/><path d="M44.34,27.183l1,3.8c0,0.1 0,0.301 -0.101,0.4l-3,2.5c-0.399,0.3 -0.7,0.8 -0.799,1.3l-0.6,3.9c0,0.1 -0.101,0.3 -0.301,0.3l-3.8,1c-0.5,0.1 -0.899,0.5 -1.2,0.901l-2.199,3.299c-0.101,0.1 -0.2,0.201 -0.4,0.201l-3.901,-0.601c-0.5,-0.1 -1.099,0 -1.5,0.3l-3.3,2.1c-0.099,0.1 -0.299,0.1 -0.399,0l-3.301,-2.1c-0.399,-0.3 -1,-0.4 -1.5,-0.3l-3.899,0.601c-0.101,0 -0.3,0 -0.401,-0.201l-2.2,-3.299c-0.3,-0.401 -0.699,-0.801 -1.199,-0.901l-3.801,-1c-0.099,0 -0.3,-0.2 -0.3,-0.3l-0.599,-3.9c-0.101,-0.5 -0.401,-1 -0.8,-1.3l-3,-2.5c-0.101,-0.099 -0.2,-0.3 -0.101,-0.4l1,-3.8c0.101,-0.5 0.101,-1 -0.2,-1.5l-1.8,-3.5c-0.099,-0.1 0,-0.3 0,-0.399l2.401,-3.101c0.3,-0.399 0.5,-0.899 0.5,-1.5l-0.2,-3.899c0,-0.201 0.099,-0.301 0.2,-0.401l3.5,-1.8c0.5,-0.2 0.8,-0.7 1,-1.2l1.399,-3.7c0.101,-0.1 0.2,-0.2 0.301,-0.2l3.899,-0.199c0.5,0 1,-0.301 1.401,-0.601l3,-2.7c0.099,-0.1 0.3,-0.1 0.399,-0.1l3.7,1.401c0.5,0.199 1,0.199 1.5,0l3.701,-1.401c0.099,-0.099 0.299,0 0.4,0.1l2.8,2.801c0.399,0.399 0.899,0.599 1.399,0.599l3.901,0.2c0.099,0 0.299,0.1 0.299,0.201l1.5,3.699c0.201,0.5 0.601,0.9 1,1.1l3.5,1.8c0.101,0.1 0.201,0.2 0.201,0.401l-0.201,3.899c0,0.5 0.101,1 0.5,1.5l2.401,3.101c0.099,0.099 0.099,0.299 0,0.399l-1.8,3.5c-0.101,0.4 -0.101,1 0,1.5m-2.2,24.2l-6.101,-1.9c-0.399,-0.1 -0.8,0 -1,0.301l-3.8,5.099l-2.899,-8.8l0.199,-0.1c0.101,-0.1 0.2,-0.1 0.301,-0.1l3.899,0.6c0.8,0.1 1.701,-0.199 2.101,-1l2.199,-3.3c0.101,-0.1 0.101,-0.1 0.2,-0.2l1.8,-0.5l3.101,9.9Zm-25.3,3.5l-3.801,-5.099c-0.199,-0.301 -0.599,-0.401 -1,-0.301l-6.099,1.9l3.2,-9.7l1.8,0.5c0.099,0 0.2,0.101 0.2,0.2l2.2,3.3c0.5,0.7 1.3,1.101 2.1,1l3.9,-0.6c0.1,0 0.199,0 0.3,0.1l0.2,0.101l-3,8.599Zm31.264,-32.425c0.402,-0.803 0.301,-1.709 -0.201,-2.312l-2.513,-3.116c-0.101,-0.101 -0.101,-0.201 -0.101,-0.302l0.201,-3.921c0,-0.805 -0.402,-1.608 -1.207,-2.011l-3.518,-1.809c-0.101,0 -0.101,-0.101 -0.201,-0.201l-1.408,-3.72c-0.301,-0.805 -1.005,-1.308 -1.91,-1.408l-3.921,-0.101c-0.1,0 -0.201,0 -0.301,-0.101l-2.715,-2.814c-0.604,-0.604 -1.508,-0.805 -2.313,-0.503l-3.72,1.408l-0.3,0l-3.721,-1.408c-0.805,-0.302 -1.709,-0.101 -2.312,0.503l-2.715,2.814c-0.101,0.101 -0.201,0.101 -0.302,0.101l-3.921,0.201c-0.804,0.101 -1.608,0.604 -1.91,1.408l-1.407,3.72c0,0.101 -0.101,0.201 -0.202,0.201l-3.518,1.81c-0.805,0.402 -1.207,1.206 -1.207,2.011l0.201,3.921c0,0.1 0,0.201 -0.101,0.301l-2.413,3.116c-0.502,0.705 -0.602,1.609 -0.2,2.313l1.81,3.519c0,0.1 0.1,0.201 0,0.301l-1.006,3.821c-0.201,0.804 0.1,1.71 0.704,2.212l3.016,2.513c0.1,0.101 0.1,0.101 0.1,0.201l0.604,3.921c0.1,0.805 0.804,1.508 1.608,1.709l0.302,0.101l-3.72,11.361c-0.201,0.503 0.101,1.005 0.604,1.106c0.2,0.1 0.401,0.1 0.502,0l7.138,-2.212l4.525,6.032c0.201,0.201 0.402,0.402 0.703,0.402l0.1,0c0.302,-0.1 0.604,-0.301 0.705,-0.602l3.317,-10.156l1.609,1.006c0.703,0.503 1.609,0.503 2.313,0l1.608,-1.006l3.318,10.156c0.1,0.301 0.402,0.502 0.704,0.602l0.1,0c0.302,0 0.603,-0.1 0.703,-0.402l4.525,-6.032l7.138,2.212c0.503,0.1 1.005,-0.101 1.106,-0.603c0.101,-0.201 0.101,-0.402 0,-0.503l-3.72,-11.361l0.302,-0.101c0.804,-0.201 1.407,-0.904 1.608,-1.709l0.604,-3.921c0,-0.1 0.1,-0.201 0.1,-0.201l3.016,-2.513c0.704,-0.502 0.905,-1.408 0.704,-2.212l-1.032,-3.924c0.009,-0.069 0.018,-0.129 0.026,-0.197l2.112,-3.621Z" style="fill:#c20631;fill-rule:nonzero;"/><path d="M33.44,19.483c0.3,-0.3 0.3,-0.899 0,-1.3c-0.3,-0.3 -0.9,-0.3 -1.3,0l-10.6,10.7l-5.6,-5.599c-0.4,-0.301 -0.9,-0.301 -1.3,0.099c-0.3,0.3 -0.3,0.8 0,1.1l6.3,6.301c0.3,0.3 0.9,0.3 1.3,0" style="fill:#c20631;fill-rule:nonzero;"/></svg>